<svg width="569" height="569" viewBox="0 0 569 569" fill="none" xmlns="http://www.w3.org/2000/svg">
<g clip-path="url(#clip0_685_96)">
<mask id="mask0_685_96" style="mask-type:luminance" maskUnits="userSpaceOnUse" x="-455" y="-363" width="3508" height="2480">
<path d="M-455 -363H3053V2117H-455V-363Z" fill="white"/>
</mask>
<g mask="url(#mask0_685_96)">
<path fill-rule="evenodd" clip-rule="evenodd" d="M568.86 84.6298V484.56C568.86 531.14 531.1 568.91 484.52 568.91H84.58C38 568.91 0.23999 531.14 0.23999 484.56V84.6298C0.23999 38.0398 38 0.279785 84.58 0.279785H484.52C531.1 0.279785 568.86 38.0398 568.86 84.6298ZM543.81 85.5098C543.81 52.2798 516.87 25.3398 483.64 25.3398H85.46C52.23 25.3398 25.29 52.2798 25.29 85.5098V483.68C25.29 516.91 52.23 543.85 85.46 543.85H483.64C516.87 543.85 543.81 516.91 543.81 483.68V85.5098Z" fill="#E7A50C"/>
<path d="M334.96 117.85L388.69 154.05C388.97 154.223 389.223 154.43 389.45 154.67L442.14 209.24C443.45 210.67 443.41 212.89 442.04 214.26L420.11 236.19C418.73 237.56 416.52 237.61 415.09 236.29L360.3 183.61C360.133 183.45 359.98 183.276 359.84 183.09L323.8 129.43C322.74 127.99 322.89 125.99 324.15 124.73L330.51 118.37C331.69 117.19 333.53 116.97 334.96 117.85Z" fill="#E7A50C"/>
<path d="M381.59 219.5L358.38 196.29C357.13 195.04 357.13 193.01 358.38 191.76L363.93 186.21C365.18 184.96 367.21 184.96 368.46 186.21L391.67 209.42C392.92 210.67 392.92 212.7 391.67 213.95L386.12 219.5C384.87 220.75 382.84 220.75 381.59 219.5Z" fill="#E7A50C"/>
<path d="M385.44 217.38L360.94 192.88C360.69 192.63 360.29 192.61 360.02 192.84L329.97 218.81C328.59 220.003 327.333 221.313 326.2 222.74L309.02 244.38L264.48 284.38L189.37 358.17C188.543 358.977 187.753 359.817 187 360.69L148.45 405.21C148.297 405.39 148.137 405.56 147.97 405.72L128.91 424.02L153.86 448.97L171.67 430.42C172.157 429.913 172.667 429.427 173.2 428.96L217.18 390.88C218.06 390.127 218.903 389.337 219.71 388.51L293.5 313.4L333.5 268.86L355.26 251.58C356.607 250.513 357.84 249.33 358.96 248.03L385.44 217.38Z" fill="#E7A50C"/>
<path d="M155.85 450.97L126.91 422.03C125.63 420.74 125.63 418.66 126.91 417.37L132.33 411.95C133.62 410.67 135.71 410.67 136.99 411.95L165.93 440.89C167.21 442.17 167.21 444.26 165.93 445.54L160.51 450.97C159.22 452.25 157.13 452.25 155.85 450.97Z" fill="#E7A50C"/>
<path d="M234.14 117.85L180.41 154.05C180.13 154.223 179.877 154.43 179.65 154.67L126.97 209.24C125.65 210.67 125.69 212.89 127.06 214.26L148.99 236.19C150.37 237.56 152.58 237.61 154.01 236.29L208.8 183.61C208.967 183.45 209.12 183.276 209.26 183.09L245.3 129.43C246.36 127.99 246.21 125.99 244.95 124.73L238.6 118.37C237.41 117.19 235.57 116.97 234.14 117.85Z" fill="#E7A50C"/>
<path d="M187.51 219.5L210.72 196.29C211.97 195.04 211.97 193.01 210.72 191.76L205.17 186.21C203.92 184.96 201.89 184.96 200.64 186.21L177.43 209.42C176.18 210.67 176.18 212.7 177.43 213.95L182.98 219.5C184.23 220.75 186.26 220.75 187.51 219.5Z" fill="#E7A50C"/>
<path d="M183.66 217.38L208.17 192.88C208.41 192.63 208.81 192.61 209.08 192.84L239.13 218.81C240.51 220.003 241.767 221.313 242.9 222.74L260.08 244.38L304.62 284.38L379.73 358.17C380.557 358.977 381.347 359.817 382.1 360.69L420.65 405.21C420.803 405.39 420.963 405.56 421.13 405.72L440.19 424.02L415.25 448.97L397.43 430.42C396.943 429.913 396.433 429.427 395.9 428.96L351.92 390.88C351.047 390.127 350.203 389.337 349.39 388.51L275.6 313.4L235.6 268.86L213.84 251.58C212.493 250.513 211.26 249.33 210.14 248.03L183.66 217.38Z" fill="#E7A50C"/>
<path d="M413.25 450.97L442.19 422.03C443.47 420.74 443.47 418.66 442.19 417.37L436.77 411.95C435.48 410.67 433.4 410.67 432.11 411.95L403.17 440.89C401.89 442.17 401.89 444.26 403.17 445.54L408.6 450.97C409.88 452.25 411.97 452.25 413.25 450.97Z" fill="#E7A50C"/>
</g>
</g>
<defs>
<clipPath id="clip0_685_96">
<rect width="569" height="569" fill="white"/>
</clipPath>
</defs>
</svg>
