<svg width="570" height="571" viewBox="0 0 570 571" fill="none" xmlns="http://www.w3.org/2000/svg">
<g clip-path="url(#clip0_685_147)">
<mask id="mask0_685_147" style="mask-type:luminance" maskUnits="userSpaceOnUse" x="-1455" y="-1203" width="3508" height="2480">
<path d="M-1455 -1203H2053V1277H-1455V-1203Z" fill="white"/>
</mask>
<g mask="url(#mask0_685_147)">
<path fill-rule="evenodd" clip-rule="evenodd" d="M569.85 85.2705V485.711C569.85 532.351 532.04 570.161 485.4 570.161H84.96C38.32 570.161 0.51001 532.351 0.51001 485.711V85.2705C0.51001 38.6205 38.32 0.810547 84.96 0.810547H485.4C532.04 0.810547 569.85 38.6205 569.85 85.2705ZM544.77 86.1506C544.77 52.8706 517.79 25.9005 484.52 25.9005H85.84C52.57 25.9005 25.59 52.8706 25.59 86.1506V484.821C25.59 518.101 52.57 545.071 85.84 545.071H484.52C517.79 545.071 544.77 518.101 544.77 484.821V86.1506Z" fill="#E7A50C"/>
<path fill-rule="evenodd" clip-rule="evenodd" d="M375.84 235.99C356.37 235.99 336.89 235.9 317.42 236.05C312.94 236.09 309.99 234.63 308.14 230.46C306.58 226.94 304.65 223.57 302.74 220.22C301.55 218.12 300.19 216.11 298.75 214.18C296.263 210.827 293.703 207.527 291.07 204.28C289.79 202.7 288.33 201.25 286.86 199.84C285.4 198.45 284.43 198.42 283.22 199.95C279.3 204.89 275.34 209.82 271.66 214.94C269.14 218.46 266.93 222.22 264.79 225.99C263.21 228.78 261.79 231.69 260.59 234.67C258.64 239.48 256.74 244.34 255.17 249.29C253.88 253.32 253.19 257.52 252.08 261.61C250.22 268.46 250.03 275.52 249.48 282.52C248.85 290.67 250.02 298.77 251.44 306.75C252.55 312.95 254.35 319.07 256.32 325.07C258.11 330.56 260.32 335.94 262.76 341.18C264.67 345.28 267.03 349.22 269.54 353C272.91 358.08 276.58 362.96 280.2 367.87C281.09 369.07 282.23 370.09 283.32 371.13C284.6 372.36 286.02 372.44 287.18 371.07C290.65 366.99 294.2 362.96 297.33 358.62C300.52 354.21 303.29 349.49 306.15 344.84C307.16 343.21 307.97 341.44 308.73 339.67C310.13 336.42 312.94 335.43 316.06 334.9C316.58 334.81 317.13 334.87 317.67 334.87C356.88 334.87 396.1 334.89 435.31 334.82C437.69 334.82 439.58 335.82 441.5 336.78C443.2 337.64 444.42 342.02 443.6 344.26C442.29 347.84 440.88 351.39 439.29 354.86C437.83 358.027 436.22 361.113 434.46 364.12C432.51 367.45 430.44 370.71 428.22 373.85C425.433 377.797 422.53 381.653 419.51 385.42C417.44 388.02 415.18 390.47 412.88 392.87C409.98 395.89 407.11 398.96 403.97 401.71C399.13 405.94 394.18 410.06 389.08 413.96C384.9 417.14 380.5 420.03 376.06 422.84C373.31 424.58 370.33 425.99 367.41 427.46C363.92 429.21 360.45 431.02 356.85 432.53C352.65 434.3 348.35 435.86 344.03 437.34C340.583 438.52 337.093 439.547 333.56 440.42C329.6 441.4 325.59 442.15 321.6 442.97C320.55 443.18 319.43 443.13 318.41 443.43C313.34 444.94 308.09 444.77 302.91 445.2C292.86 446.04 282.82 445.51 272.78 444.74C266.61 444.26 260.55 443.16 254.56 441.67C249.1 440.31 243.61 439.02 238.25 437.3C233.52 435.78 228.9 433.84 224.34 431.84C219.87 429.89 215.47 427.77 211.18 425.45C207.29 423.34 203.55 420.93 199.82 418.53C196.58 416.43 193.31 414.34 190.31 411.93C185.76 408.27 181.22 404.56 177.06 400.48C171.86 395.37 166.9 389.99 162.13 384.47C159.1 380.96 156.44 377.08 153.89 373.18C150.71 368.35 147.6 363.45 144.87 358.36C142.32 353.61 140.19 348.61 138.11 343.63C136.283 339.277 134.647 334.853 133.2 330.36C132.03 326.71 131.12 322.95 130.36 319.18C129.22 313.56 128.01 307.92 127.35 302.22C125.67 287.77 126.1 273.32 128.81 259.01C129.93 253.12 131.19 247.21 132.97 241.49C134.88 235.37 137.25 229.36 139.84 223.49C142.36 217.77 145.2 212.16 148.31 206.73C150.99 202.04 154.09 197.56 157.29 193.2C160.54 188.75 163.92 184.36 167.64 180.31C172.21 175.34 177.15 170.71 182.03 166.04C184.12 164.03 186.35 162.16 188.68 160.45C193.35 157.02 198 153.53 202.91 150.48C208.19 147.21 213.63 144.13 219.24 141.47C226.51 138.02 233.91 134.83 241.76 132.82C244.98 131.99 248.11 130.82 251.32 129.97C253.29 129.45 255.34 129.24 257.35 128.91C263.65 127.9 269.93 126.42 276.27 125.99C287.64 125.2 299.05 124.84 310.39 126.65C316.54 127.62 322.75 128.3 328.84 129.58C334.03 130.67 339.09 132.37 344.17 133.92C347.19 134.85 350.19 135.89 353.11 137.1C356.87 138.66 360.56 140.39 364.24 142.13C366.91 143.39 369.61 144.62 372.13 146.15C377.16 149.22 382.2 152.31 387.01 155.7C391.78 159.06 396.52 162.53 400.84 166.42C405.93 171.01 410.66 176.02 415.35 181.02C418.32 184.19 421.05 187.59 423.71 191.03C426.2 194.25 428.58 197.57 430.76 201C433.29 204.98 435.75 209.03 437.86 213.24C440.07 217.63 442.07 222.17 443.69 226.82C444.99 230.57 442.12 235.9 437.16 235.89C428.77 235.87 420.38 235.99 411.99 236.01C399.937 236.023 387.887 236.023 375.84 236.01V235.99ZM337.17 423.04C337.15 422.813 337.133 422.587 337.12 422.36C334.93 421.57 332.73 420.81 330.55 420C326.44 418.46 322.32 416.95 318.23 415.34C316.537 414.667 314.893 413.893 313.3 413.02C310.573 411.527 307.877 409.983 305.21 408.39C302.4 406.72 299.55 405.1 296.88 403.22C293.25 400.66 289.77 397.87 286.23 395.17C284.6 393.92 282.91 393.97 281.19 395.04C277.41 397.36 273.66 399.77 269.71 401.79C262.31 405.58 254.38 408.05 246.25 409.55C239.18 410.85 231.94 410.99 224.72 410.5C222.31 410.34 219.9 410.17 217.48 410.09C217.1 410.08 216.7 410.51 216.31 410.74C216.58 411.09 216.78 411.56 217.13 411.76C218.383 412.487 219.667 413.16 220.98 413.78C224.29 415.32 227.58 416.9 230.95 418.3C235.24 420.08 239.54 421.86 243.95 423.34C248.11 424.74 252.38 425.89 256.67 426.88C261.01 427.89 265.4 428.65 269.8 429.37C272.5 429.81 275.26 429.9 277.97 430.27C284.83 431.21 291.73 431.08 298.58 430.51C305.79 429.9 312.99 428.92 320.15 427.81C324.64 427.12 329.08 425.96 333.5 424.85C334.79 424.52 335.95 423.65 337.17 423.04ZM365.33 349.97V350.01C350.97 350.017 336.607 350.01 322.24 349.99C320.86 349.99 319.84 350.51 319.15 351.66C317.02 355.2 315.05 358.83 312.78 362.27C310.427 365.85 307.923 369.317 305.27 372.67C302.87 375.7 300.18 378.48 297.64 381.39C296.7 382.46 296.71 383.97 297.65 384.7C299.55 386.17 301.42 387.71 303.45 389C307.69 391.72 311.96 394.4 316.34 396.89C319.83 398.86 323.42 400.68 327.1 402.28C331.57 404.22 336.16 405.92 340.74 407.59C343.42 408.57 346.2 409.29 348.94 410.12C349.66 410.34 350.41 410.49 351.1 410.78C356.84 413.2 362.3 412.51 367.55 409.36C371.41 407.04 375.37 404.88 379.07 402.33C382.81 399.75 386.52 397.02 389.83 393.92C394.94 389.11 399.75 383.98 404.58 378.89C406.91 376.43 409.17 373.88 411.13 371.14C414.35 366.66 417.35 362.02 420.33 357.38C421.4 355.73 422.33 353.95 423.01 352.11C423.58 350.54 422.83 349.83 421.13 349.85C416.25 349.9 411.37 349.96 406.48 349.96C392.767 349.973 379.05 349.977 365.33 349.97ZM375.29 221.16V221.21C390.29 221.21 405.29 221.14 420.29 221.28C422.89 221.3 423.99 219.9 422.64 217.55C421.3 215.23 419.98 212.9 418.47 210.69C415.52 206.41 412.57 202.12 409.4 198C406.72 194.507 403.873 191.157 400.86 187.95C397.77 184.67 394.47 181.57 391.13 178.54C387.94 175.67 384.7 172.84 381.26 170.27C376.88 167.01 372.3 164.05 367.34 161.66C362.69 159.41 358.21 157.2 353.03 159.95C352.7 160.12 352.3 160.11 351.93 160.21C348.94 161.04 345.87 161.68 342.96 162.76C337.03 164.95 331.12 167.22 325.32 169.76C321.01 171.65 316.75 173.76 312.73 176.2C307.88 179.15 303.29 182.52 298.62 185.76C296.53 187.22 296.49 188.31 298.16 190.24C301.01 193.52 303.95 196.74 306.63 200.16C309.17 203.4 311.5 206.81 313.78 210.24C315.44 212.73 317.07 215.28 318.36 217.97C319.37 220.09 320.75 221.2 323.04 221.21C325.61 221.21 328.19 221.17 330.76 221.16C345.6 221.16 360.443 221.16 375.29 221.16ZM229.72 175.55C223.05 174.76 216.57 176.41 210.16 178.25C204.53 179.87 199.3 182.51 194.21 185.42C189.53 188.09 185.14 191.15 181.16 194.76C178.27 197.38 175.41 200.04 172.72 202.86C170.21 205.5 167.78 208.24 165.61 211.16C163.09 214.54 160.77 218.09 158.6 221.71C156.38 225.42 154.15 229.19 152.44 233.15C150.29 238.11 148.56 243.26 146.84 248.39C145.79 251.54 144.84 254.76 144.29 258.03C143.35 263.477 142.617 268.95 142.09 274.45C141.02 285.68 141.34 296.9 143.49 308C144.39 312.62 145.26 317.28 146.62 321.78C148.24 327.1 150.26 332.31 152.32 337.49C153.46 340.37 154.82 343.21 156.43 345.85C159.17 350.31 162 354.74 165.13 358.94C168.3 363.18 171.62 367.38 175.34 371.13C180.74 376.59 186.7 381.47 193.43 385.23C197.95 387.76 202.6 390.17 207.44 391.97C216.62 395.37 226.19 396.67 235.98 395.53C240.67 394.98 245.32 394.36 249.94 393.18C256.06 391.63 261.67 389.07 267.21 386.23C268.59 385.53 269.86 384.59 271.06 383.62C272.11 382.77 272.05 381.9 271.07 380.77C268.12 377.37 265.16 373.95 262.54 370.31C259.467 366.05 256.593 361.657 253.92 357.13C251.36 352.81 249.11 348.29 246.87 343.79C245.77 341.59 245 339.23 244.09 336.94C243.1 334.46 241.99 332.01 241.17 329.48C240.21 326.49 239.5 323.42 238.69 320.38C238.62 320.12 238.51 319.87 238.45 319.61C237.57 315.79 236.42 312.02 235.88 308.15C234.34 297.11 233.49 285.99 234.65 274.87C235.38 267.77 236.3 260.64 237.81 253.68C239.08 247.78 241.22 242.06 243.17 236.33C244.32 232.93 245.67 229.58 247.25 226.36C249.53 221.75 251.93 217.19 254.59 212.79C257.34 208.26 260.35 203.88 263.47 199.59C265.77 196.42 268.43 193.52 270.92 190.5C272.2 188.95 272.09 188.04 270.41 186.99C269.09 186.17 267.78 185.31 266.37 184.67C261.55 182.48 256.85 179.82 251.8 178.37C244.7 176.32 237.37 174.82 229.72 175.55ZM215.37 161.41C216.43 161.41 217.36 161.5 218.26 161.4C220.82 161.1 223.35 160.57 225.91 160.4C236.85 159.66 247.53 161.21 257.96 164.49C260.06 165.15 262.13 165.92 264.12 166.84C267.51 168.41 270.88 170.04 274.17 171.82C276.85 173.27 279.44 174.9 281.97 176.59C283.15 177.39 284.16 177.35 285.2 176.6C289.57 173.49 293.94 170.39 298.24 167.2C303.74 163.13 309.66 159.75 315.86 156.98C321.63 154.41 327.65 152.42 333.55 150.17C334.94 149.64 336.34 149.13 337.14 147.56C336.64 147.32 336.28 147.08 335.88 146.98C332.5 146.11 329.14 145.14 325.72 144.44C321.14 143.51 316.53 142.74 311.92 141.99C299.41 139.98 286.81 140.13 274.27 141.19C267.83 141.73 261.43 143.23 255.12 144.75C249.24 146.17 243.41 147.95 237.71 150C232.53 151.86 227.48 154.14 222.5 156.51C219.99 157.7 217.2 158.65 215.37 161.41Z" fill="#E7A50C"/>
</g>
</g>
<defs>
<clipPath id="clip0_685_147">
<rect width="570" height="571" fill="white"/>
</clipPath>
</defs>
</svg>
