<svg width="570" height="570" viewBox="0 0 570 570" fill="none" xmlns="http://www.w3.org/2000/svg">
<g clip-path="url(#clip0_685_157)">
<mask id="mask0_685_157" style="mask-type:luminance" maskUnits="userSpaceOnUse" x="-469" y="-1203" width="3508" height="2480">
<path d="M-469 -1203H3039V1277H-469V-1203Z" fill="white"/>
</mask>
<g mask="url(#mask0_685_157)">
<path fill-rule="evenodd" clip-rule="evenodd" d="M569.44 85.1705V485.141C569.44 531.721 531.68 569.491 485.09 569.491H85.12C38.53 569.491 0.77002 531.721 0.77002 485.141V85.1705C0.77002 38.5805 38.53 0.810547 85.12 0.810547H485.09C531.68 0.810547 569.44 38.5805 569.44 85.1705ZM544.39 86.0506C544.39 52.8106 517.44 25.8705 484.21 25.8705H86C52.77 25.8705 25.82 52.8106 25.82 86.0506V484.261C25.82 517.491 52.77 544.431 86 544.431H484.21C517.44 544.431 544.39 517.491 544.39 484.261V86.0506Z" fill="#E7A50C"/>
<path d="M358.82 260.491V324.191C356.62 324.281 354.65 324.451 352.67 324.451C279.46 324.461 206.26 324.421 133.05 324.551C128.42 324.561 126.61 323.731 126.62 318.531C126.79 246.461 126.74 174.381 126.75 102.311C126.75 100.661 126.89 99.0205 126.99 96.7405C129.14 96.5905 131.09 96.3405 133.03 96.3405C234.48 96.3205 335.93 96.3505 437.38 96.2305C442.14 96.2205 443.83 97.3105 443.74 102.381C443.42 119.461 443.62 136.561 443.6 153.651C443.6 155.451 443.4 157.251 443.26 159.611H435.67C357.07 159.611 278.473 159.614 199.88 159.621C191.79 159.621 191.78 159.631 191.78 167.891C191.78 196.501 191.91 225.101 191.67 253.711C191.62 258.971 192.89 260.641 198.4 260.621C249.49 260.411 300.59 260.491 351.69 260.491H358.82Z" fill="#E7A50C"/>
<path d="M195.03 442.4V455.33C195.03 464.62 199.02 468.37 207.19 468.37H227.4V458.84H207.5C205.54 458.84 204.88 457.65 204.88 455.44V453.4H227.3V443.99H204.98V441.38C204.98 439.74 206.04 438.89 207.5 438.89H227.4V429.36H207.09C203.71 429.36 199.71 430.51 198.02 432.39C195.88 434.79 195.03 437.69 195.03 442.4Z" fill="#E7A50C"/>
<path d="M269.67 465.1H269.46C269.35 463.74 268.7 462 268.42 460.61C268.12 459.11 267.78 457.58 267.37 456.15C266.88 454.4 266.81 453.49 266.05 451.98C265.58 451.05 264.19 449.71 263 449.68V449.45C265.39 449.45 268.06 446.51 268.06 443.85V436.6C268.06 433.77 265.78 431.22 263.93 430.22C261.89 429.11 258.58 428.31 255.58 428.31H230.94V468.48H241.37V438.24H254.28C255.67 438.24 257.51 438.67 257.51 440.11V442.56C257.51 443.96 256.58 444.66 255.36 444.66H245.14V454.23H253.85C256.36 454.23 256.83 458.15 257.34 460.5C257.63 461.85 257.88 463.2 258.22 464.56C258.4 465.23 258.86 468.48 259.34 468.48H279.36C279.85 468.48 281.77 461.71 282.12 460.74C283.08 458.12 283.76 455.27 284.73 452.72C285.65 450.32 286.59 447.25 287.36 444.71C287.78 443.33 288.22 442.1 288.65 440.73C289.04 439.49 289.43 437.66 290.87 437.66H291.19C292.8 437.66 293.03 439.25 293.5 440.53C293.97 441.85 294.37 443.12 294.79 444.5C295.61 447.18 296.55 449.89 297.42 452.5C298.29 455.08 299.26 457.89 300 460.45C300.72 462.97 302.07 466.04 302.6 468.48H313.68C313.67 467.8 310.09 457.89 309.59 456.57C308.87 454.68 308.31 452.43 307.55 450.62C306.87 448.98 306 446.47 305.46 444.71C304.57 441.79 302.42 435.32 301.12 433.08C299.25 429.87 295.87 427.61 291.09 427.61C286.74 427.61 283.29 429.58 281.44 432.33C279.94 434.57 278.27 440.02 277.3 443.01C276.13 446.61 274.77 450.41 273.47 454.04C272.8 455.92 272.24 457.67 271.55 459.54C271.24 460.35 269.71 464.57 269.67 465.1Z" fill="#E7A50C"/>
<path d="M316.4 439.76V468.48H326.95V440.81C326.95 439.31 327.87 437.65 329.21 437.65H329.85C332.33 437.65 332.8 440.88 333.42 443.01C334.06 445.22 334.62 447.95 335.4 450.08C336.26 452.43 337.4 453.91 339.11 455.29C340.38 456.31 343.27 457.62 345.46 457.62H347.93C350.06 457.62 352.89 456.31 354.22 455.34C355.67 454.27 357.28 452.12 357.93 450.25C358.7 448.03 359.16 445.5 359.86 443.24C360.41 441.46 361.13 437.65 363.1 437.65H364.18C365.51 437.65 366.33 439.24 366.33 440.81V468.48H376.98V437.65C376.98 436.46 375.95 433.98 375.48 433.22C374.83 432.17 373.66 430.84 372.68 430.18C370.32 428.61 367.65 427.61 363.86 427.61C358.25 427.61 353.9 430.01 352.02 434.03C350.78 436.67 350.7 438.26 349.91 441.32C349.28 443.76 349.32 447.58 346.75 447.58H346.64C345.03 447.58 344.72 446.65 344.42 445.2C344.15 443.84 343.83 442.63 343.54 441.37C342.94 438.74 342.58 436.13 341.43 434.08C339.13 429.99 335.62 427.61 329.64 427.61C322.1 427.61 316.4 431.57 316.4 439.76Z" fill="#E7A50C"/>
<path fill-rule="evenodd" clip-rule="evenodd" d="M443.43 179.521V408.08H192.3V474.07H126.47V343.74H377.44C377.59 341.51 377.82 339.741 377.83 337.971C377.85 308.431 377.73 278.891 377.95 249.351C377.99 244.431 376.16 243.64 371.81 243.65C320.7 243.78 269.6 243.73 218.5 243.73H210.99V179.521H443.43ZM187.03 413.87H163.35C157.74 413.87 153.42 414.66 150.21 417.08C148.82 418.12 147.12 419.74 146.32 421.36C145.51 422.97 144.41 425.441 144.41 427.751V454.18C144.41 455.98 145.43 458.91 146.06 460.18C146.83 461.72 148.27 463.4 149.56 464.43C152.23 466.55 156.44 468.171 161.2 468.171H187.03V457.63H163.03C158.98 457.63 156.47 455.751 156.47 451.711V430.541C156.47 425.901 159.05 424.3 163.68 424.3H187.03V413.87Z" fill="#E7A50C"/>
<path d="M392.11 441.16V455.76C392.11 459.79 393.98 463.14 396.01 465.07C398.01 466.97 401.73 468.48 405.45 468.48H424.93V458.56H408.58C406.87 458.56 405.67 458.35 404.61 457.6C403.85 457.06 402.76 455.65 402.76 454.35V442.33C402.76 441.24 403.83 439.79 404.5 439.31C405.44 438.64 406.63 438.24 408.14 438.24H425.04V428.32H405.67C398.19 428.32 392.11 433.15 392.11 441.16Z" fill="#E7A50C"/>
<path d="M380 468.48H390.55V428.32H380V468.48Z" fill="#E7A50C"/>
<path fill-rule="evenodd" clip-rule="evenodd" d="M443.46 428.32V436.28C443.46 437.667 443.177 438.707 442.61 439.4C442.037 440.094 441.183 440.44 440.05 440.44H437.9C436.76 440.44 435.903 440.09 435.33 439.39C434.75 438.697 434.46 437.66 434.46 436.28V431.38H429.11V428.32H443.46ZM440.46 431.38H437.48V435.87C437.48 436.364 437.577 436.737 437.77 436.99C437.97 437.25 438.253 437.377 438.62 437.37H439.33C439.703 437.377 439.983 437.25 440.17 436.99C440.363 436.737 440.46 436.364 440.46 435.87V431.38Z" fill="#E7A50C"/>
<path d="M443.12 441.78V449.63C443.12 451.144 442.847 452.277 442.3 453.03C441.753 453.784 440.923 454.16 439.81 454.16H438.26C437.527 454.16 436.963 454.02 436.57 453.74C436.177 453.46 435.9 453.01 435.74 452.39C435.62 452.784 435.43 453.084 435.17 453.29C434.917 453.497 434.47 453.677 433.83 453.83L429.17 454.89V451.15L432.81 450.41C433.23 450.33 433.557 450.194 433.79 450C434.023 449.8 434.14 449.564 434.14 449.29V446.55H437.42V449.6C437.42 449.96 437.477 450.224 437.59 450.39C437.703 450.55 437.883 450.63 438.13 450.63H438.94C439.193 450.63 439.38 450.547 439.5 450.38C439.62 450.214 439.68 449.954 439.68 449.6V445.28H429.17V441.78H443.12Z" fill="#E7A50C"/>
<path fill-rule="evenodd" clip-rule="evenodd" d="M443.36 460.651V464.871C443.36 466.364 442.947 467.524 442.12 468.351C441.293 469.177 440.133 469.591 438.64 469.591H433.65C432.157 469.591 430.997 469.177 430.17 468.351C429.343 467.524 428.93 466.364 428.93 464.871V460.651C428.93 459.157 429.343 457.997 430.17 457.171C430.997 456.344 432.157 455.931 433.65 455.931H438.64C440.133 455.931 441.293 456.344 442.12 457.171C442.947 457.997 443.36 459.157 443.36 460.651ZM438.15 459.461H434.14C433.58 459.461 433.147 459.614 432.84 459.921C432.527 460.234 432.37 460.667 432.37 461.221V464.301C432.37 464.854 432.527 465.287 432.84 465.601C433.147 465.907 433.58 466.061 434.14 466.061H438.15C438.71 466.061 439.143 465.907 439.45 465.601C439.763 465.287 439.92 464.854 439.92 464.301V461.221C439.92 460.667 439.763 460.234 439.45 459.921C439.143 459.614 438.71 459.461 438.15 459.461Z" fill="#E7A50C"/>
</g>
</g>
<defs>
<clipPath id="clip0_685_157">
<rect width="570" height="570" fill="white"/>
</clipPath>
</defs>
</svg>
