<svg width="569" height="569" viewBox="0 0 569 569" fill="none" xmlns="http://www.w3.org/2000/svg">
<g clip-path="url(#clip0_685_113)">
<mask id="mask0_685_113" style="mask-type:luminance" maskUnits="userSpaceOnUse" x="-2471" y="-1205" width="3508" height="2480">
<path d="M-2471 -1205H1037V1275H-2471V-1205Z" fill="white"/>
</mask>
<g mask="url(#mask0_685_113)">
<path fill-rule="evenodd" clip-rule="evenodd" d="M402.48 119.99L471.42 362.24C476.37 379.6 466.3 397.68 448.93 402.62L206.69 471.57C189.32 476.51 171.24 466.44 166.3 449.08L97.36 206.83C92.41 189.47 102.48 171.39 119.85 166.44L362.09 97.4998C379.46 92.5598 397.54 102.63 402.48 119.99ZM416.24 272.05C413.98 264.1 405.7 259.49 397.75 261.75L311.71 286.24C303.76 288.5 299.14 296.78 301.41 304.73L325.9 390.78C328.16 398.73 336.44 403.34 344.39 401.07L430.43 376.59C438.38 374.32 442.99 366.04 440.73 358.09L416.24 272.05ZM242.88 178.3C240.62 170.34 232.34 165.73 224.39 168L138.35 192.49C130.39 194.75 125.78 203.03 128.05 210.98L152.54 297.02C154.8 304.97 163.08 309.58 171.03 307.32L257.07 282.83C265.02 280.57 269.63 272.29 267.37 264.34L242.88 178.3ZM280.55 310.67C278.29 302.72 270.01 298.11 262.06 300.38L176.02 324.86C168.07 327.13 163.46 335.41 165.72 343.36L190.21 429.4C192.47 437.35 200.75 441.96 208.7 439.7L294.74 415.21C302.7 412.95 307.31 404.67 305.04 396.72L280.55 310.67ZM378.56 139.68C376.3 131.73 368.02 127.11 360.07 129.38L274.03 153.87C266.08 156.13 261.47 164.41 263.73 172.36L288.22 258.4C290.48 266.35 298.76 270.96 306.71 268.7L392.75 244.21C400.7 241.95 405.31 233.67 403.05 225.72L378.56 139.68Z" fill="#E7A50C"/>
<path fill-rule="evenodd" clip-rule="evenodd" d="M568.7 84.5697V484.5C568.7 531.08 530.94 568.85 484.36 568.85H84.4201C37.8401 568.85 0.0800781 531.08 0.0800781 484.5V84.5697C0.0800781 37.9797 37.8401 0.219727 84.4201 0.219727H484.36C530.94 0.219727 568.7 37.9797 568.7 84.5697ZM543.65 85.4497C543.65 52.2197 516.71 25.2797 483.48 25.2797H85.3001C52.0701 25.2797 25.1301 52.2197 25.1301 85.4497V483.62C25.1301 516.85 52.0701 543.79 85.3001 543.79H483.48C516.71 543.79 543.65 516.85 543.65 483.62V85.4497Z" fill="#E7A50C"/>
</g>
</g>
<defs>
<clipPath id="clip0_685_113">
<rect width="569" height="569" fill="white"/>
</clipPath>
</defs>
</svg>
