<svg width="570" height="569" viewBox="0 0 570 569" fill="none" xmlns="http://www.w3.org/2000/svg">
<g clip-path="url(#clip0_685_82)">
<mask id="mask0_685_82" style="mask-type:luminance" maskUnits="userSpaceOnUse" x="-2456" y="-363" width="3508" height="2480">
<path d="M-2456 -363H1052V2117H-2456V-363Z" fill="white"/>
</mask>
<g mask="url(#mask0_685_82)">
<path fill-rule="evenodd" clip-rule="evenodd" d="M569.12 84.6298V484.56C569.12 531.14 531.36 568.91 484.78 568.91H84.84C38.26 568.91 0.5 531.14 0.5 484.56V84.6298C0.5 38.0398 38.26 0.279785 84.84 0.279785H484.78C531.36 0.279785 569.12 38.0398 569.12 84.6298ZM544.07 85.5098C544.07 52.2798 517.13 25.3398 483.9 25.3398H85.72C52.49 25.3398 25.55 52.2798 25.55 85.5098V483.68C25.55 516.91 52.49 543.85 85.72 543.85H483.9C517.13 543.85 544.07 516.91 544.07 483.68V85.5098Z" fill="#E7A50C"/>
<path fill-rule="evenodd" clip-rule="evenodd" d="M322.2 334.11C322.32 331.42 322.53 328.73 322.52 326.04C322.52 325.22 322.15 324.2 321.59 323.63C313.83 315.79 306 308.02 298.21 300.21C290.61 292.59 283.04 284.93 275.43 277.32C267.15 269.02 258.81 260.78 250.52 252.49C243.21 245.17 235.95 237.81 228.64 230.49C222.24 224.09 215.79 217.72 209.36 211.34C208.38 210.36 208.34 209.54 209.39 208.49C214.21 203.67 218.97 198.8 223.76 193.95C224.59 193.11 224.64 192.34 223.77 191.47C219.34 187.06 215.03 182.54 210.49 178.26C207.91 175.83 208.15 171.95 210.59 169.59C216.05 164.32 221.29 158.82 226.79 153.6C229.5 151.02 232.82 151.08 235.7 155C238.93 159.39 241.91 164 245.49 168.1C250.1 173.37 255.14 178.27 260.11 183.23C261.61 184.72 261.64 186.23 261.2 188.06C260.47 191.15 259.85 194.26 259.19 197.36C258.31 201.453 257.433 205.547 256.56 209.64C255.95 212.52 255.39 215.42 254.79 218.31C254.21 221.1 253.58 223.88 253.04 226.67C252.3 230.56 253.18 234.24 254.57 237.84C256.45 242.73 259.69 246.46 264.19 249.11C269.97 252.53 276.06 253.07 282.5 251.22C287.88 249.68 291.94 246.41 294.94 241.87C296.26 239.87 297.18 237.5 297.83 235.17C299.01 230.93 299.87 226.6 300.83 222.3C301.18 220.73 301.32 219.1 301.78 217.56C302.3 215.85 303.29 215.63 304.48 216.91C306.4 218.98 308.81 220.68 309.83 223.48C310.38 224.99 311.02 226.48 311.43 228.03C311.97 230.1 312.12 232.29 312.83 234.3C313.44 236.02 314.29 237.85 315.55 239.12C329.55 253.25 343.67 267.26 357.73 281.33C364.09 287.69 370.44 294.08 376.72 300.52C379.74 303.62 382.84 306.68 385.44 310.12C388.18 313.73 390.39 317.74 392.77 321.62C395.61 326.27 398.4 330.95 401.2 335.63C403.66 339.76 406.1 343.91 408.56 348.04C410.56 351.39 412.59 354.72 414.59 358.07C417.01 362.11 419.42 366.157 421.82 370.21C422.627 371.59 423.427 372.977 424.22 374.37C425.91 377.3 425.79 380.35 423.66 382.77C420.5 386.35 417.04 389.71 413.44 392.86C410.09 395.8 406.49 395.27 403.36 392.23C396.61 385.66 390.01 378.93 383.33 372.29C379.96 368.93 376.7 365.43 373.09 362.34C370.62 360.22 367.58 359.67 364.36 361.21C360.15 363.22 355.87 365.05 351.6 366.92C349.66 367.76 348.98 367.46 347.59 365.58C343.183 359.653 338.757 353.743 334.31 347.85C334.03 347.49 333.37 347.08 333 347.17C330.49 347.77 328.79 346.54 327.21 344.87C326 343.59 324.72 342.38 323.49 341.13C322.26 339.9 321.86 338.42 322.08 336.69C322.2 335.85 322.1 334.97 322.1 334.11C322.133 334.11 322.167 334.11 322.2 334.11ZM317.05 302.52C318.39 301.75 319.59 301.09 320.76 300.37C325.193 297.597 329.623 294.81 334.05 292.01C336.44 290.5 338.83 288.99 341.19 287.42C342.07 286.83 342.82 285.97 342.1 284.85C341.42 283.82 340.6 283.69 339.4 284.47C332.63 288.83 325.77 293.07 318.98 297.4C317.86 298.1 316.81 298.94 315.86 299.85C315.57 300.13 315.53 300.95 315.71 301.37C315.9 301.81 316.51 302.08 317.05 302.52ZM333.9 276.83C333.28 277.03 332.95 277.08 332.68 277.24C331.273 278.113 329.873 278.997 328.48 279.89C324.68 282.28 320.88 284.67 317.11 287.09C314.37 288.85 311.63 290.61 308.99 292.51C308.59 292.79 308.43 294.19 308.72 294.47C309.22 294.94 310.4 295.32 310.9 295.05C313.46 293.63 315.9 291.98 318.39 290.42C321.7 288.35 325.03 286.32 328.31 284.21C330.51 282.81 332.663 281.34 334.77 279.8C335.16 279.51 335.46 278.6 335.29 278.19C335.04 277.61 334.33 277.22 333.9 276.83ZM361.59 335.81C357.25 335.5 353.94 339.6 354.06 343.19C354.21 347.63 357.53 350.75 361.64 350.8C365.29 350.84 369.1 347.65 369.14 343.29C369.18 339.17 365.22 335.31 361.59 335.81ZM322.6 307.5C322.6 309 323.72 309.75 324.93 309.07C326.94 307.96 328.87 306.7 330.81 305.48C336.54 301.84 342.24 298.16 348.01 294.59C349.22 293.83 349.66 292.9 349.01 291.81C348.21 290.46 346.98 291.17 346.05 291.75C339.06 296.1 332.07 300.45 325.16 304.92C324.15 305.57 322.49 305.89 322.6 307.5Z" fill="#E7A50C"/>
<path d="M241.71 257.14C241.32 258.35 240.81 259.3 240.71 260.29C240.37 263.8 239.81 267.35 239.99 270.86C240.18 274.62 238.68 277.49 236.56 280.28C234.78 282.62 233.33 285.13 233.5 288.2C233.66 290.94 232.66 293.09 230.63 294.88C229.35 296.01 228.2 297.28 227 298.5C225.69 299.83 224.91 299.88 223.61 298.59C218.84 293.84 214.09 289.06 209.31 284.32C198.98 274.06 188.63 263.82 178.3 253.56C171.2 246.5 164.11 239.44 157.1 232.31C156.64 231.84 156.44 230.37 156.8 229.97C158.67 227.86 160.66 225.83 162.82 224.02C163.72 223.26 165.14 222.71 166.31 222.74C170.76 222.86 174.27 220.83 177.55 218.21C179.46 216.69 181.56 215.89 183.97 216.2C188.33 216.74 192.7 216.38 196.74 214.99C199.43 214.06 200.63 215.24 202.09 216.71C214.963 229.583 227.823 242.473 240.67 255.38C241.16 255.87 241.4 256.6 241.71 257.14Z" fill="#E7A50C"/>
<path d="M296.31 118.74C304.48 118.68 310.4 125.46 310.06 133.4C309.96 135.78 309.15 138.13 308.65 140.5C308.25 142.33 307.79 144.15 307.43 145.99C306.89 148.79 306.47 151.61 305.89 154.4C305.06 158.45 304.14 162.47 303.25 166.51C302.76 168.71 302.21 170.89 301.76 173.1C300.86 177.64 300.05 182.19 299.12 186.72C298.04 192.04 296.89 197.33 295.77 202.64C294.67 207.893 293.563 213.146 292.45 218.4C291.39 223.33 290.55 228.33 289.16 233.17C287.78 237.94 284.53 241.07 279.63 242.71C273.63 244.71 266.84 241.53 263.72 236.3C261.43 232.47 261.66 228.28 262.64 224.07C263.29 221.31 263.83 218.52 264.42 215.74C264.933 213.266 265.443 210.793 265.95 208.32C266.563 205.326 267.18 202.333 267.8 199.34C268.307 196.973 268.813 194.606 269.32 192.24C269.94 189.31 270.52 186.37 271.17 183.44C272.15 179.04 273.21 174.66 274.16 170.25C275.05 166.1 275.81 161.93 276.66 157.77C277.587 153.303 278.52 148.836 279.46 144.37C280.02 141.7 280.47 139 281.14 136.35C282.06 132.74 282.75 128.99 284.26 125.62C286.17 121.34 291.44 118.51 296.31 118.74Z" fill="#E7A50C"/>
<path d="M222.41 314.09C222.18 319.67 220.36 324.43 216.83 328.52C215.53 330.03 214.51 329.98 213.11 328.55C208.57 323.97 203.99 319.43 199.43 314.87C191.43 306.896 183.437 298.92 175.45 290.94C166.49 281.96 157.53 272.983 148.57 264.01C141.743 257.196 134.913 250.386 128.08 243.58C127.63 243.13 127.13 242.72 126.74 242.22C126.09 241.4 126.08 240.58 126.89 239.8C129.07 237.7 131.48 236.05 134.41 235.07C137.91 233.91 141.41 233.38 145.03 234.13C145.96 234.33 147 234.78 147.67 235.44C154.54 242.28 161.32 249.21 168.17 256.08C175.32 263.24 182.54 270.34 189.7 277.49C197.01 284.79 204.29 292.12 211.6 299.43C214.53 302.37 217.47 305.31 220.47 308.19C222.25 309.9 222.4 312.05 222.41 314.09Z" fill="#E7A50C"/>
<path d="M436.27 402.62C436.16 407.08 434.65 411.09 432.22 414.8C430.61 417.26 428.97 419.7 427.46 422.23C425.58 425.38 426.08 429.31 428.6 431.95C431.93 435.43 435.77 438.19 440.22 440.09C442.92 441.24 444.15 444.8 442.81 447.5C441.53 450.1 438.07 451.15 435.47 450C430.82 447.94 426.57 445.3 422.99 441.7C420.66 439.36 418.34 437 416.76 434C415.17 430.97 415.6 427.79 415.79 424.66C416.02 420.99 417.84 417.81 419.61 414.67C420.77 412.63 422.5 410.81 423.24 408.64C424.36 405.35 425.67 401.88 423.71 398.35C423.01 397.08 423.18 395.96 424.38 394.91C425.99 393.5 427.44 391.91 428.95 390.39C429.85 389.48 430.92 389.47 431.61 390.4C434.33 394 436.47 397.87 436.27 402.62Z" fill="#E7A50C"/>
</g>
</g>
<defs>
<clipPath id="clip0_685_82">
<rect width="570" height="569" fill="white"/>
</clipPath>
</defs>
</svg>
