<svg width="570" height="569" viewBox="0 0 570 569" fill="none" xmlns="http://www.w3.org/2000/svg">
<g clip-path="url(#clip0_685_123)">
<mask id="mask0_685_123" style="mask-type:luminance" maskUnits="userSpaceOnUse" x="-1455" y="-363" width="3508" height="2480">
<path d="M-1455 -363H2053V2117H-1455V-363Z" fill="white"/>
</mask>
<g mask="url(#mask0_685_123)">
<path d="M317.43 266.5L332.64 271Z" fill="#E7A50C"/>
<path d="M381.7 282.73L372.82 281.84L371.55 273.09C371.41 272.17 370.67 271.45 369.74 271.36C369.24 271.31 368.75 271.45 368.34 271.74L352.77 283.16C352.4 280.12 350.61 277.47 348.02 275.93L363.21 264.76C365.36 263.21 367.98 262.49 370.6 262.75C375.5 263.25 379.39 266.98 380.11 271.84L381.7 282.73Z" fill="#E7A50C"/>
<path fill-rule="evenodd" clip-rule="evenodd" d="M351.08 284.44C351.073 285.167 350.98 285.867 350.8 286.54C350.74 286.767 350.67 286.994 350.59 287.22L334.46 339.04H337.5V338.88C337.5 338.03 338.19 337.35 339.03 337.35C339.88 337.35 340.57 338.03 340.57 338.88V344.81C340.57 345.66 339.88 346.35 339.03 346.35C338.19 346.35 337.5 345.66 337.5 344.81V344.66H332.72L331.55 348.41H331.52C331.52 348.41 337.51 412.91 306.01 398.92C325.92 398.92 319.11 348.41 319.11 348.41L334.84 282.83C334.86 282.75 334.88 282.674 334.9 282.6L334.96 282.36C335.89 278.84 339.08 276.24 342.88 276.24C347.41 276.24 351.08 279.91 351.08 284.44ZM346.75 284.44C346.75 282.3 345.02 280.57 342.88 280.57C340.74 280.57 339.01 282.3 339.01 284.44C339.01 286.58 340.74 288.31 342.88 288.31C345.02 288.31 346.75 286.58 346.75 284.44Z" fill="#E7A50C"/>
<path d="M342.35 282.01C342.37 282.003 342.39 282 342.41 282C342.39 282.007 342.37 282.01 342.35 282.01Z" fill="#E7A50C"/>
<path d="M343.51 282.04C344.05 282.28 344.44 282.82 344.44 283.46C344.44 284.32 343.74 285.01 342.88 285.01C342.02 285.01 341.33 284.32 341.33 283.46C341.33 282.82 341.71 282.28 342.26 282.04C341.19 282.32 340.39 283.28 340.39 284.44C340.39 285.82 341.51 286.93 342.88 286.93C344.26 286.93 345.37 285.82 345.37 284.44C345.37 283.28 344.58 282.32 343.51 282.04Z" fill="#E7A50C"/>
<path d="M343.41 282.01C343.39 282.003 343.37 282 343.35 282C343.37 282.007 343.39 282.01 343.41 282.01Z" fill="#E7A50C"/>
<path d="M374.44 418.371C375.51 423.531 376.52 428.411 377.4 432.701H380.32C382.84 432.701 385.17 431.571 386.72 429.591C388.27 427.601 388.82 425.071 388.21 422.621L370.9 351.141H356.29C361.07 354.751 362.62 361.511 362.62 361.511C362.62 361.511 366.7 381.081 370.98 401.701H339.52V404.721L368.37 411.401C368.37 411.401 373.23 412.521 374.44 418.371Z" fill="#E7A50C"/>
<path d="M398.65 317.781H402.51V319.011C402.51 320.541 403.75 321.781 405.29 321.781H408.43C409.96 321.781 411.21 320.541 411.21 319.011V306.041C411.21 304.511 409.96 303.261 408.43 303.261H405.29C403.75 303.261 402.51 304.511 402.51 306.041V307.271H398.65V317.781Z" fill="#E7A50C"/>
<path d="M440.95 330.471H438.97C437.44 330.471 436.2 331.711 436.2 333.251V333.941H433.15V343.041H436.2V343.731C436.2 345.271 437.44 346.511 438.97 346.511H440.95C442.48 346.511 443.73 345.271 443.73 343.731V333.251C443.73 331.711 442.48 330.471 440.95 330.471Z" fill="#E7A50C"/>
<path fill-rule="evenodd" clip-rule="evenodd" d="M438.04 476H376.45C373.97 476 372.52 473.25 373.88 471.18C377.49 465.64 382.13 455.81 379.75 444.15C379.25 441.68 378.56 438.34 377.76 434.43H380.32C383.37 434.43 386.2 433.06 388.08 430.65C389.96 428.25 390.63 425.17 389.89 422.21L372.22 349.24H367.25V349.25H349.65H345.35C343.57 349.25 342.13 347.8 342.13 346.02V335.47H347.6C350.42 335.47 352.71 333.19 352.71 330.37C352.71 327.54 350.42 325.26 347.6 325.26H340.57L352.22 287.81C352.32 287.537 352.407 287.26 352.48 286.98C352.7 286.127 352.81 285.284 352.81 284.45H354.16C356.46 284.45 358.48 285.97 359.07 288.2L361.16 295.84H379.68C382.54 295.84 384.99 297.88 385.49 300.7L386.31 305.28H396.47V319.77H388.89L390.67 329.73H415.61C417.54 329.73 419.28 330.7 420.34 332.22H430.97V344.76H423.59L424.59 349.25H422.04C420.43 349.32 409.32 350.25 409.32 363.19C409.32 368.52 413.51 386.25 418.69 406.12H409.5C406.49 406.12 404.04 408.57 404.04 411.59C404.04 413.43 404.97 415.14 406.52 416.15L408.09 417.18L407.01 415.65C406.45 414.84 406.15 413.9 406.15 412.93C406.15 410.31 408.28 408.19 410.89 408.19H419.23C420.44 412.78 421.69 417.46 422.95 422.12H413.8C410.78 422.12 408.33 424.57 408.33 427.58C408.33 429.43 409.26 431.14 410.81 432.15L412.38 433.18L411.3 431.64C410.74 430.84 410.44 429.9 410.44 428.93C410.44 426.31 412.57 424.19 415.18 424.19H423.51C424.79 428.93 426.08 433.61 427.32 438.12H418.22C415.21 438.12 412.75 440.57 412.75 443.58C412.75 445.43 413.68 447.14 415.23 448.15L416.8 449.18L415.72 447.64C415.16 446.84 414.86 445.9 414.86 444.93C414.86 442.31 416.99 440.19 419.6 440.19H427.9C429.27 445.14 430.59 449.85 431.79 454.12H422.73C419.71 454.12 417.26 456.57 417.26 459.58C417.26 461.43 418.19 463.14 419.74 464.15L421.31 465.18L420.23 463.64C419.67 462.84 419.37 461.9 419.37 460.93C419.37 458.31 421.5 456.19 424.11 456.19H432.38C435.71 467.98 438.04 476 438.04 476ZM382.58 314.14C379.973 313.86 377.367 313.674 374.76 313.58C373.46 313.51 372.16 313.5 370.85 313.46L368.9 313.44L368.41 313.43C368.283 313.43 368.157 313.42 368.03 313.4C367.77 313.354 367.523 313.277 367.29 313.17C366.82 312.96 366.42 312.6 366.14 312.17C366 311.957 365.893 311.724 365.82 311.47L365.56 310.54C365.2 309.29 364.85 308.03 364.46 306.78C363.713 304.287 362.877 301.814 361.95 299.36C362.337 301.954 362.813 304.524 363.38 307.07C363.64 308.34 363.95 309.61 364.25 310.88L364.48 311.84C364.587 312.22 364.743 312.58 364.95 312.92C365.36 313.59 365.97 314.14 366.69 314.48C367.05 314.64 367.427 314.75 367.82 314.81C368.013 314.837 368.21 314.85 368.41 314.85L368.9 314.84L370.85 314.82C372.16 314.78 373.46 314.77 374.76 314.7C377.367 314.607 379.973 314.42 382.58 314.14Z" fill="#E7A50C"/>
<path d="M255.28 297.96H240.67V311.74H255.28V297.96Z" fill="#E7A50C"/>
<path fill-rule="evenodd" clip-rule="evenodd" d="M329.5 274.511L328.28 278.641L330.21 279.211L328.67 284.451H332.67L322.88 325.261H281.49V284.451H305.55L308.95 272.931L310.88 273.501L312.1 269.371L310.87 269.011C308.61 268.341 307.33 265.971 307.99 263.721L336.02 271.991C335.36 274.251 332.99 275.541 330.74 274.871L329.5 274.511ZM308.85 281.711L311.51 282.491L313.46 275.891L310.8 275.111L308.85 281.711ZM315.15 276.381L313.2 282.991L314.53 283.381L316.48 276.781L315.15 276.381ZM322.08 287.951L314.46 287.751C309.39 287.621 304.31 287.601 299.23 287.581L291.62 287.621L289.72 287.651L288.77 287.661C288.39 287.661 287.98 287.741 287.61 287.881C286.87 288.171 286.25 288.751 285.93 289.471C285.763 289.837 285.673 290.217 285.66 290.611C285.65 291.001 285.67 291.261 285.68 291.601C285.79 296.671 285.93 301.751 286.23 306.831C286.52 301.751 286.66 296.671 286.78 291.601C286.79 291.301 286.79 290.931 286.81 290.681C286.837 290.434 286.903 290.204 287.01 289.991C287.23 289.561 287.61 289.221 288.06 289.061C288.28 288.981 288.517 288.944 288.77 288.951L289.72 288.961L291.62 288.991L299.23 289.031C304.31 289.011 309.39 288.991 314.46 288.861L322.08 288.661C324.61 288.541 327.15 288.471 329.69 288.301C327.15 288.141 324.61 288.071 322.08 287.951Z" fill="#E7A50C"/>
<path fill-rule="evenodd" clip-rule="evenodd" d="M257.47 279.971H279.31V329.731H257.47V279.971ZM277.42 295.871H259.4V300.091H277.42V295.871ZM277.42 283.911H259.4V292.351H277.42V283.911Z" fill="#E7A50C"/>
<path fill-rule="evenodd" clip-rule="evenodd" d="M421.1 129.59C419.967 133.43 418.833 137.27 417.7 141.11C417.38 142.2 416.24 142.82 415.15 142.5C413.923 142.14 412.697 141.78 411.47 141.42L383.78 235.2C377.83 255.38 356.64 266.9 336.47 260.95L335.68 260.71L333.26 268.9L311.99 262.62L314.41 254.44L313.62 254.2C293.44 248.25 281.92 227.06 287.87 206.89L315.56 113.1C313.987 112.634 312.41 112.167 310.83 111.7C309.74 111.38 309.12 110.24 309.44 109.15C310.58 105.31 311.717 101.47 312.85 97.6303C313.17 96.5403 314.32 95.8803 315.42 96.1503C350.65 104.83 385.45 115.11 419.74 126.95C420.82 127.32 421.43 128.5 421.1 129.59ZM406.69 139.61C403.21 138.26 399.69 137.02 396.19 135.75L385.59 132.13C378.51 129.77 371.37 127.59 364.24 125.42C357.06 123.36 349.89 121.3 342.66 119.43C335.44 117.56 328.19 115.78 320.89 114.22L342.37 120.5C349.53 122.59 356.7 124.63 363.83 126.8C370.99 128.86 378.12 131.05 385.26 133.19L406.69 139.61ZM401.6 151.11L396.68 149.66L372.68 230.95C367.94 247.01 353.36 256.91 340.18 253.02L345.09 254.47C358.27 258.37 372.86 248.46 377.6 232.4L401.6 151.11ZM301.87 211.03L326.14 128.84L317.36 126.24L293.09 208.44C288.5 223.99 295.22 239.75 308.07 243.54L316.86 246.14C304 242.34 297.28 226.59 301.87 211.03ZM396.15 132.87L399 133.71L401.95 123.72L399.1 122.88L396.15 132.87ZM412.78 126.92L405.56 124.79L402.62 134.78L409.83 136.91L412.78 126.92Z" fill="#E7A50C"/>
<path d="M126.63 352.29L232.1 311.43V298.31L126.63 257.45V352.29Z" fill="#E7A50C"/>
<path fill-rule="evenodd" clip-rule="evenodd" d="M569.49 84.6303V484.56C569.49 531.14 531.73 568.91 485.15 568.91H85.2101C38.6301 568.91 0.870117 531.14 0.870117 484.56V84.6303C0.870117 38.0403 38.6301 0.280273 85.2101 0.280273H485.15C531.73 0.280273 569.49 38.0403 569.49 84.6303ZM544.44 85.5103C544.44 52.2803 517.5 25.3403 484.27 25.3403H86.0901C52.8601 25.3403 25.9201 52.2803 25.9201 85.5103V483.68C25.9201 516.91 52.8601 543.85 86.0901 543.85H484.27C517.5 543.85 544.44 516.91 544.44 483.68V85.5103Z" fill="#E7A50C"/>
</g>
</g>
<defs>
<clipPath id="clip0_685_123">
<rect width="570" height="569" fill="white"/>
</clipPath>
</defs>
</svg>
