<svg width="52" height="52" viewBox="0 0 52 52" fill="none" xmlns="http://www.w3.org/2000/svg">
<path d="M0 15C0 15.5523 0.447715 16 1 16H3C3.55228 16 4 15.5523 4 15V13C4 12.4477 3.55228 12 3 12H1C0.447715 12 0 12.4477 0 13V15Z" fill="#333333"/>
<path d="M0 3C0 3.55228 0.447715 4 1 4H3C3.55228 4 4 3.55228 4 3V1C4 0.447716 3.55228 0 3 0H1C0.447715 0 0 0.447716 0 1V3Z" fill="#333333"/>
<path d="M12 39C12 39.5523 12.4477 40 13 40H15C15.5523 40 16 39.5523 16 39V37C16 36.4477 15.5523 36 15 36H13C12.4477 36 12 36.4477 12 37V39Z" fill="#333333"/>
<path d="M12 27C12 27.5523 12.4477 28 13 28H15C15.5523 28 16 27.5523 16 27V25C16 24.4477 15.5523 24 15 24H13C12.4477 24 12 24.4477 12 25V27Z" fill="#333333"/>
<path d="M12 15C12 15.5523 12.4477 16 13 16H15C15.5523 16 16 15.5523 16 15V13C16 12.4477 15.5523 12 15 12H13C12.4477 12 12 12.4477 12 13V15Z" fill="#333333"/>
<path d="M12 3C12 3.55228 12.4477 4 13 4H15C15.5523 4 16 3.55228 16 3V1C16 0.447716 15.5523 0 15 0H13C12.4477 0 12 0.447716 12 1V3Z" fill="#333333"/>
<path d="M36 51C36 51.5523 36.4477 52 37 52H39C39.5523 52 40 51.5523 40 51V49C40 48.4477 39.5523 48 39 48H37C36.4477 48 36 48.4477 36 49V51Z" fill="#333333"/>
<path d="M36 39C36 39.5523 36.4477 40 37 40H39C39.5523 40 40 39.5523 40 39V37C40 36.4477 39.5523 36 39 36H37C36.4477 36 36 36.4477 36 37V39Z" fill="#333333"/>
<path d="M36 27C36 27.5523 36.4477 28 37 28H39C39.5523 28 40 27.5523 40 27V25C40 24.4477 39.5523 24 39 24H37C36.4477 24 36 24.4477 36 25V27Z" fill="#333333"/>
<path d="M36 15C36 15.5523 36.4477 16 37 16H39C39.5523 16 40 15.5523 40 15V13C40 12.4477 39.5523 12 39 12H37C36.4477 12 36 12.4477 36 13V15Z" fill="#333333"/>
<path d="M36 3C36 3.55228 36.4477 4 37 4H39C39.5523 4 40 3.55228 40 3V1C40 0.447716 39.5523 0 39 0H37C36.4477 0 36 0.447716 36 1V3Z" fill="#333333"/>
<path d="M24 39C24 39.5523 24.4477 40 25 40H27C27.5523 40 28 39.5523 28 39V37C28 36.4477 27.5523 36 27 36H25C24.4477 36 24 36.4477 24 37V39Z" fill="#333333"/>
<path d="M24 27C24 27.5523 24.4477 28 25 28H27C27.5523 28 28 27.5523 28 27V25C28 24.4477 27.5523 24 27 24H25C24.4477 24 24 24.4477 24 25V27Z" fill="#333333"/>
<path d="M24 15C24 15.5523 24.4477 16 25 16H27C27.5523 16 28 15.5523 28 15V13C28 12.4477 27.5523 12 27 12H25C24.4477 12 24 12.4477 24 13V15Z" fill="#333333"/>
<path d="M24 3C24 3.55228 24.4477 4 25 4H27C27.5523 4 28 3.55228 28 3V1C28 0.447716 27.5523 0 27 0H25C24.4477 0 24 0.447716 24 1V3Z" fill="#333333"/>
<path d="M48 51C48 51.5523 48.4477 52 49 52H51C51.5523 52 52 51.5523 52 51V49C52 48.4477 51.5523 48 51 48H49C48.4477 48 48 48.4477 48 49V51Z" fill="#333333"/>
<path d="M48 39C48 39.5523 48.4477 40 49 40H51C51.5523 40 52 39.5523 52 39V37C52 36.4477 51.5523 36 51 36H49C48.4477 36 48 36.4477 48 37V39Z" fill="#333333"/>
<path d="M48 27C48 27.5523 48.4477 28 49 28H51C51.5523 28 52 27.5523 52 27V25C52 24.4477 51.5523 24 51 24H49C48.4477 24 48 24.4477 48 25V27Z" fill="#333333"/>
<path d="M48 15C48 15.5523 48.4477 16 49 16H51C51.5523 16 52 15.5523 52 15V13C52 12.4477 51.5523 12 51 12H49C48.4477 12 48 12.4477 48 13V15Z" fill="#333333"/>
<path d="M48 3C48 3.55228 48.4477 4 49 4H51C51.5523 4 52 3.55228 52 3V1C52 0.447716 51.5523 0 51 0H49C48.4477 0 48 0.447716 48 1V3Z" fill="#333333"/>
</svg>
